<svg width="301" height="95" viewBox="0 0 301 95" fill="none" xmlns="http://www.w3.org/2000/svg">
<rect x="0.570435" y="0.294037" width="300" height="93.8548" rx="10" fill="#FFD050"/>
<mask id="mask0_129_14" style="mask-type:alpha" maskUnits="userSpaceOnUse" x="0" y="0" width="301" height="95">
<rect x="0.570435" y="0.294037" width="300" height="93.8548" rx="10" fill="#FFD050"/>
</mask>
<g mask="url(#mask0_129_14)">
<circle cx="70.1357" cy="96.4097" r="85.6617" fill="#FFE18E"/>
</g>
<path d="M70.0318 36.5894C70.8524 36.5894 71.6554 36.7029 72.4411 36.9298C73.2267 37.1568 73.9337 37.506 74.5622 37.9773C75.2082 38.4487 75.7145 39.0423 76.0811 39.7581C76.4652 40.4564 76.6572 41.2944 76.6572 42.272C76.6572 43.3021 76.3953 44.1924 75.8716 44.9431C75.3653 45.6764 74.6932 46.2525 73.8552 46.6715C73.0172 47.073 72.1094 47.3087 71.1317 47.3785L77.4428 54.1348H72.6506L66.5489 46.9595V54.1348H62.9089V36.5894H70.0318ZM66.5489 39.9937V44.4194C66.9679 44.559 67.4306 44.6725 67.9369 44.7598C68.4606 44.8296 68.9844 44.8646 69.5081 44.8646C70.5556 44.8646 71.3848 44.6551 71.9959 44.2361C72.6244 43.7996 72.9386 43.1886 72.9386 42.403C72.9386 41.5475 72.6069 40.9365 71.9435 40.5699C71.2976 40.1858 70.5032 39.9937 69.5605 39.9937H66.5489Z" fill="black"/>
<path d="M82.6017 34.0231C83.2302 34.0231 83.7714 34.25 84.2253 34.7039C84.6792 35.1404 84.9061 35.6641 84.9061 36.2752C84.9061 36.8687 84.6792 37.3925 84.2253 37.8464C83.7714 38.3003 83.2302 38.5273 82.6017 38.5273C81.9732 38.5273 81.432 38.3003 80.9781 37.8464C80.5416 37.3925 80.3234 36.8687 80.3234 36.2752C80.3234 35.6641 80.5416 35.1404 80.9781 34.7039C81.432 34.25 81.9732 34.0231 82.6017 34.0231ZM84.5395 40.9103V54.1348H81.2138V43.7385H79.0926V40.9103H84.5395Z" fill="black"/>
<path d="M96.2976 40.5699C97.345 40.5699 98.314 40.8405 99.2043 41.3817C100.112 41.9054 100.837 42.6823 101.378 43.7123C101.937 44.7249 102.216 45.9644 102.216 47.4309C102.216 48.8974 101.937 50.1631 101.378 51.228C100.837 52.293 100.095 53.1135 99.152 53.6896C98.2267 54.2483 97.1966 54.5276 96.0619 54.5276C95.3286 54.5276 94.5954 54.353 93.8621 54.0039C93.1464 53.6372 92.5441 53.1833 92.0552 52.6421V60.4197H88.7295V40.9103H92.0552V43.1362C92.4393 42.4204 92.998 41.8181 93.7312 41.3293C94.4645 40.823 95.3199 40.5699 96.2976 40.5699ZM95.4596 43.8956C94.866 43.8956 94.3073 44.0527 93.7836 44.367C93.2598 44.6638 92.8321 45.0915 92.5004 45.6502C92.1862 46.2088 92.0378 46.881 92.0552 47.6666V49.5782C92.5266 50.0671 93.0329 50.4773 93.5741 50.809C94.1327 51.1233 94.7351 51.2804 95.381 51.2804C96.0619 51.2804 96.6554 51.0971 97.1617 50.7305C97.668 50.3639 98.0608 49.8925 98.3401 49.3164C98.6195 48.7228 98.7591 48.0943 98.7591 47.4309C98.7591 46.4358 98.4536 45.5978 97.8426 44.9169C97.249 44.2361 96.4547 43.8956 95.4596 43.8956Z" fill="black"/>
<path d="M112.953 40.5699C114 40.5699 114.969 40.8405 115.859 41.3817C116.767 41.9054 117.492 42.6823 118.033 43.7123C118.592 44.7249 118.871 45.9644 118.871 47.4309C118.871 48.8974 118.592 50.1631 118.033 51.228C117.492 52.293 116.75 53.1135 115.807 53.6896C114.882 54.2483 113.852 54.5276 112.717 54.5276C111.984 54.5276 111.25 54.353 110.517 54.0039C109.801 53.6372 109.199 53.1833 108.71 52.6421V60.4197H105.384V40.9103H108.71V43.1362C109.094 42.4204 109.653 41.8181 110.386 41.3293C111.119 40.823 111.975 40.5699 112.953 40.5699ZM112.115 43.8956C111.521 43.8956 110.962 44.0527 110.439 44.367C109.915 44.6638 109.487 45.0915 109.155 45.6502C108.841 46.2088 108.693 46.881 108.71 47.6666V49.5782C109.182 50.0671 109.688 50.4773 110.229 50.809C110.788 51.1233 111.39 51.2804 112.036 51.2804C112.717 51.2804 113.31 51.0971 113.817 50.7305C114.323 50.3639 114.716 49.8925 114.995 49.3164C115.275 48.7228 115.414 48.0943 115.414 47.4309C115.414 46.4358 115.109 45.5978 114.498 44.9169C113.904 44.2361 113.11 43.8956 112.115 43.8956Z" fill="black"/>
<path d="M125.365 35.2801V54.1348H122.04V35.2801H125.365Z" fill="black"/>
<path d="M135.212 40.5699C136.504 40.5699 137.612 40.8492 138.537 41.4078C139.48 41.9665 140.196 42.7434 140.685 43.7385C141.191 44.7162 141.444 45.8509 141.444 47.1428V48.5569H131.86C132.034 49.4473 132.471 50.1631 133.169 50.7043C133.867 51.2455 134.723 51.5161 135.735 51.5161C136.696 51.5161 137.568 51.324 138.354 50.94C139.14 50.5559 139.768 50.1631 140.24 49.7615L140.213 52.8516C139.794 53.2183 139.166 53.5936 138.328 53.9777C137.507 54.3443 136.6 54.5276 135.604 54.5276C134.295 54.5276 133.099 54.2308 132.017 53.6372C130.952 53.0437 130.096 52.2319 129.45 51.2018C128.822 50.1718 128.508 48.9934 128.508 47.6666C128.508 46.3747 128.796 45.1963 129.372 44.1313C129.948 43.0664 130.742 42.2109 131.755 41.565C132.768 40.9016 133.92 40.5699 135.212 40.5699ZM135.133 43.4766C134.313 43.4766 133.623 43.7298 133.064 44.2361C132.506 44.7423 132.122 45.4232 131.912 46.2787H138.249C138.18 45.3359 137.83 44.6376 137.202 44.1837C136.573 43.7123 135.884 43.4766 135.133 43.4766Z" fill="black"/>
<path d="M148.75 40.5699C149.571 40.5699 150.33 40.6921 151.029 40.9365C151.727 41.1809 152.268 41.4602 152.652 41.7745V44.7074C152.233 44.4281 151.718 44.1575 151.107 43.8956C150.514 43.6338 149.894 43.5028 149.248 43.5028C148.619 43.5028 148.122 43.6425 147.755 43.9218C147.389 44.2011 147.205 44.5328 147.205 44.9169C147.205 45.1963 147.31 45.4581 147.52 45.7025C147.729 45.9295 148.131 46.1303 148.724 46.3048L150.217 46.8024C152.225 47.396 153.228 48.5569 153.228 50.2853C153.228 51.1058 152.993 51.8391 152.521 52.485C152.067 53.1135 151.448 53.6111 150.662 53.9777C149.894 54.3443 149.038 54.5276 148.096 54.5276C147.205 54.5276 146.341 54.3879 145.503 54.1086C144.665 53.8293 144.028 53.5238 143.592 53.1921V50.2853C143.923 50.5122 144.325 50.7305 144.796 50.94C145.268 51.1495 145.756 51.324 146.263 51.4637C146.769 51.5859 147.232 51.647 147.651 51.647C148.314 51.647 148.82 51.5335 149.169 51.3066C149.536 51.0622 149.719 50.7217 149.719 50.2853C149.719 49.9536 149.571 49.6917 149.274 49.4997C148.977 49.3076 148.541 49.1156 147.965 48.9236L146.341 48.3474C145.329 48.0157 144.63 47.5444 144.246 46.9333C143.862 46.3223 143.67 45.5978 143.67 44.7598C143.67 43.9218 143.88 43.1973 144.299 42.5863C144.735 41.9578 145.337 41.469 146.106 41.1198C146.874 40.7532 147.755 40.5699 148.75 40.5699Z" fill="black"/>
<path d="M168.129 36.5894V43.7385H176.273V36.5894H179.887V54.1348H176.273V47.0119H168.129V54.1348H164.489V36.5894H168.129Z" fill="black"/>
<path d="M190.702 40.5699C191.994 40.5699 193.173 40.8841 194.237 41.5126C195.302 42.1236 196.158 42.9616 196.804 44.0266C197.467 45.074 197.799 46.2525 197.799 47.5618C197.799 48.8712 197.467 50.0496 196.804 51.0971C196.158 52.1446 195.302 52.9826 194.237 53.6111C193.173 54.2221 191.994 54.5276 190.702 54.5276C189.428 54.5276 188.249 54.2221 187.167 53.6111C186.102 52.9826 185.247 52.1446 184.601 51.0971C183.955 50.0496 183.632 48.8712 183.632 47.5618C183.632 46.2525 183.955 45.074 184.601 44.0266C185.247 42.9616 186.102 42.1236 187.167 41.5126C188.249 40.8841 189.428 40.5699 190.702 40.5699ZM190.702 43.7909C190.074 43.7909 189.489 43.9393 188.948 44.2361C188.406 44.5328 187.97 44.9606 187.638 45.5192C187.324 46.0779 187.167 46.7588 187.167 47.5618C187.167 48.3649 187.324 49.0458 187.638 49.6044C187.97 50.1631 188.406 50.5908 188.948 50.8876C189.489 51.1669 190.074 51.3066 190.702 51.3066C191.331 51.3066 191.916 51.1669 192.457 50.8876C192.998 50.5908 193.434 50.1631 193.766 49.6044C194.098 49.0458 194.264 48.3649 194.264 47.5618C194.264 46.7588 194.098 46.0779 193.766 45.5192C193.434 44.9606 192.998 44.5328 192.457 44.2361C191.916 43.9393 191.331 43.7909 190.702 43.7909Z" fill="black"/>
<path d="M213.197 40.9103L206.938 54.1348H204.817L198.637 40.9103H202.513L205.838 49.1069L209.321 40.9103H213.197Z" fill="black"/>
<path d="M220.634 40.5699C221.926 40.5699 223.035 40.8492 223.96 41.4078C224.903 41.9665 225.618 42.7434 226.107 43.7385C226.614 44.7162 226.867 45.8509 226.867 47.1428V48.5569H217.282C217.457 49.4473 217.893 50.1631 218.592 50.7043C219.29 51.2455 220.145 51.5161 221.158 51.5161C222.118 51.5161 222.991 51.324 223.777 50.94C224.562 50.5559 225.191 50.1631 225.662 49.7615L225.636 52.8516C225.217 53.2183 224.588 53.5936 223.75 53.9777C222.93 54.3443 222.022 54.5276 221.027 54.5276C219.718 54.5276 218.522 54.2308 217.439 53.6372C216.374 53.0437 215.519 52.2319 214.873 51.2018C214.244 50.1718 213.93 48.9934 213.93 47.6666C213.93 46.3747 214.218 45.1963 214.794 44.1313C215.371 43.0664 216.165 42.2109 217.177 41.565C218.19 40.9016 219.342 40.5699 220.634 40.5699ZM220.556 43.4766C219.735 43.4766 219.045 43.7298 218.487 44.2361C217.928 44.7423 217.544 45.4232 217.335 46.2787H223.672C223.602 45.3359 223.253 44.6376 222.624 44.1837C221.996 43.7123 221.306 43.4766 220.556 43.4766Z" fill="black"/>
<path d="M238.232 44.6289C237.673 44.3146 237.088 44.1575 236.477 44.1575C235.709 44.1575 235.072 44.4106 234.566 44.9169C234.059 45.4058 233.614 46.0168 233.23 46.75V54.1348H229.904V40.9103H233.23V43.3981C233.684 42.6125 234.217 41.9578 234.828 41.434C235.456 40.9103 236.163 40.6484 236.949 40.6484C237.42 40.6484 237.848 40.727 238.232 40.8841V44.6289Z" fill="black"/>
</svg>
